<svg xmlns="http://www.w3.org/2000/svg" viewBox="0 0 512 512">
  <rect width="512" height="512" fill="#000000" />
  <path
    fill="#ffffff"
    d="M256 38c-118.4 0-214 95.6-214 214v230h428V252C470 133.6 374.4 38 256 38Z"
  />
  <path
    fill="#000000"
    d="M256 86c-92.2 0-166 73.8-166 166v198h332V252c0-92.2-73.8-166-166-166Z"
  />
  <path
    fill="#ffffff"
    d="M336 436H176V196l122-74h38v314Z"
  />
  <path
    fill="#000000"
    d="M324 420H188V214l112-68h24v274Z"
  />
  <path
    fill="#000000"
    d="m300 146-112 68V420h112V146Z"
  />
  <path
    fill="#000000"
    d="M300 162h24v258h-24z"
  />
  <path
    fill="#ffffff"
    d="M224 278a10 10 0 1 0 20 0 10 10 0 0 0-20 0Zm0 64a10 10 0 1 0 20 0 10 10 0 0 0-20 0Zm0 64a10 10 0 1 0 20 0 10 10 0 0 0-20 0Z"
  />
  <path
    fill="#ffffff"
    d="M296 218a34 34 0 1 0 0-68 34 34 0 0 0 0 68Z"
  />
  <path
    fill="#ffffff"
    d="m244 312 8.8 21.2 21.2 8.8-21.2 8.8-8.8 21.2-8.8-21.2-21.2-8.8 21.2-8.8 8.8-21.2ZM244 388l6 14.4 14.4 6-14.4 6-6 14.4-6-14.4-14.4-6 14.4-6 6-14.4Z"
  />
</svg>

